<svg xmlns="http://www.w3.org/2000/svg" xmlns:xlink="http://www.w3.org/1999/xlink" width="1080" zoomAndPan="magnify" viewBox="0 0 810 809.999993" height="1080" preserveAspectRatio="xMidYMid meet" version="1.0"><defs><clipPath id="93a21de903"><path d="M 202.5 0 L 607.5 0 L 607.5 404 L 202.5 404 Z M 202.5 0 " clip-rule="nonzero"/></clipPath></defs><g clip-path="url(#93a21de903)"><path fill="#d74b25" d="M 430.296875 403.324219 C 424.050781 403.324219 418.613281 398.699219 417.765625 392.335938 C 416.84375 385.410156 421.710938 379.042969 428.640625 378.121094 C 516.175781 366.460938 582.1875 290.960938 582.1875 202.5 C 582.1875 104.796875 502.703125 25.3125 405 25.3125 C 307.296875 25.3125 227.8125 104.796875 227.8125 202.5 C 227.8125 290.960938 293.824219 366.460938 381.359375 378.121094 C 388.289062 379.042969 393.15625 385.410156 392.234375 392.335938 C 391.3125 399.265625 384.949219 404.121094 378.015625 403.210938 C 277.953125 389.886719 202.5 303.597656 202.5 202.5 C 202.5 90.839844 293.339844 0 405 0 C 516.65625 0 607.5 90.839844 607.5 202.5 C 607.5 303.597656 532.046875 389.886719 431.984375 403.210938 C 431.417969 403.285156 430.855469 403.324219 430.296875 403.324219 Z M 430.296875 403.324219 " fill-opacity="1" fill-rule="nonzero"/></g><path fill="#d74b25" d="M 405 303.75 C 356.148438 303.75 316.40625 264.007812 316.40625 215.15625 C 316.40625 193.308594 324.425781 172.328125 338.984375 156.085938 C 343.652344 150.878906 351.652344 150.445312 356.855469 155.105469 C 362.0625 159.773438 362.5 167.773438 357.835938 172.980469 C 347.441406 184.574219 341.71875 199.550781 341.71875 215.15625 C 341.71875 250.050781 370.105469 278.4375 405 278.4375 C 439.894531 278.4375 468.28125 250.050781 468.28125 215.15625 C 468.28125 199.550781 462.558594 184.574219 452.164062 172.980469 C 447.5 167.773438 447.933594 159.773438 453.140625 155.105469 C 458.347656 150.441406 466.347656 150.878906 471.011719 156.082031 C 485.574219 172.328125 493.59375 193.308594 493.59375 215.15625 C 493.59375 264.007812 453.851562 303.75 405 303.75 Z M 405 303.75 " fill-opacity="1" fill-rule="nonzero"/><path fill="#d74b25" d="M 405 227.8125 C 398.011719 227.8125 392.34375 222.144531 392.34375 215.15625 L 392.34375 113.90625 C 392.34375 106.917969 398.011719 101.25 405 101.25 C 411.988281 101.25 417.65625 106.917969 417.65625 113.90625 L 417.65625 215.15625 C 417.65625 222.144531 411.988281 227.8125 405 227.8125 Z M 405 227.8125 " fill-opacity="1" fill-rule="nonzero"/><path fill="#d74b25" d="M 531.5625 544.21875 C 524.574219 544.21875 518.90625 538.550781 518.90625 531.5625 L 518.90625 468.28125 C 518.90625 461.304688 513.226562 455.625 506.25 455.625 C 499.273438 455.625 493.59375 461.304688 493.59375 468.28125 L 493.59375 531.5625 C 493.59375 538.550781 487.925781 544.21875 480.9375 544.21875 C 473.949219 544.21875 468.28125 538.550781 468.28125 531.5625 L 468.28125 468.28125 C 468.28125 447.347656 485.316406 430.3125 506.25 430.3125 C 527.183594 430.3125 544.21875 447.347656 544.21875 468.28125 L 544.21875 531.5625 C 544.21875 538.550781 538.550781 544.21875 531.5625 544.21875 Z M 531.5625 544.21875 " fill-opacity="1" fill-rule="nonzero"/><path fill="#d74b25" d="M 480.9375 531.5625 C 473.949219 531.5625 468.28125 525.894531 468.28125 518.90625 L 468.28125 455.625 C 468.28125 448.648438 462.601562 442.96875 455.625 442.96875 C 448.648438 442.96875 442.96875 448.648438 442.96875 455.625 L 442.96875 518.90625 C 442.96875 525.894531 437.300781 531.5625 430.3125 531.5625 C 423.324219 531.5625 417.65625 525.894531 417.65625 518.90625 L 417.65625 455.625 C 417.65625 434.691406 434.691406 417.65625 455.625 417.65625 C 476.558594 417.65625 493.59375 434.691406 493.59375 455.625 L 493.59375 518.90625 C 493.59375 525.894531 487.925781 531.5625 480.9375 531.5625 Z M 480.9375 531.5625 " fill-opacity="1" fill-rule="nonzero"/><path fill="#d74b25" d="M 430.3125 544.21875 C 423.324219 544.21875 417.65625 538.550781 417.65625 531.5625 L 417.65625 367.03125 C 417.65625 360.054688 411.976562 354.375 405 354.375 C 398.023438 354.375 392.34375 360.054688 392.34375 367.03125 L 392.34375 531.5625 C 392.34375 538.550781 386.675781 544.21875 379.6875 544.21875 C 372.699219 544.21875 367.03125 538.550781 367.03125 531.5625 L 367.03125 367.03125 C 367.03125 346.09375 384.0625 329.0625 405 329.0625 C 425.933594 329.0625 442.96875 346.09375 442.96875 367.03125 L 442.96875 531.5625 C 442.96875 538.550781 437.300781 544.21875 430.3125 544.21875 Z M 430.3125 544.21875 " fill-opacity="1" fill-rule="nonzero"/><path fill="#d74b25" d="M 544.21875 759.375 L 367.03125 759.375 C 360.042969 759.375 354.375 753.707031 354.375 746.71875 L 354.375 735.597656 C 354.375 719.753906 347.703125 694.664062 339.097656 686.058594 C 324.464844 671.425781 316.40625 651.972656 316.40625 631.277344 L 316.40625 544.21875 C 316.40625 523.285156 333.441406 506.25 354.375 506.25 C 375.308594 506.25 392.34375 523.285156 392.34375 544.21875 L 392.34375 582.1875 C 392.34375 589.175781 386.675781 594.84375 379.6875 594.84375 C 372.699219 594.84375 367.03125 589.175781 367.03125 582.1875 L 367.03125 544.21875 C 367.03125 537.242188 361.351562 531.5625 354.375 531.5625 C 347.398438 531.5625 341.71875 537.242188 341.71875 544.21875 L 341.71875 631.277344 C 341.71875 645.210938 347.144531 658.308594 356.996094 668.15625 C 372.226562 683.386719 379.300781 715.238281 379.671875 734.0625 L 531.578125 734.0625 C 531.964844 713.941406 539.984375 695.085938 554.253906 680.8125 C 564.105469 670.964844 569.53125 657.863281 569.53125 643.933594 L 569.53125 493.59375 C 569.53125 486.617188 563.851562 480.9375 556.875 480.9375 C 549.898438 480.9375 544.21875 486.617188 544.21875 493.59375 L 544.21875 556.875 C 544.21875 563.863281 538.550781 569.53125 531.5625 569.53125 C 524.574219 569.53125 518.90625 563.863281 518.90625 556.875 L 518.90625 493.59375 C 518.90625 472.660156 535.941406 455.625 556.875 455.625 C 577.808594 455.625 594.84375 472.660156 594.84375 493.59375 L 594.84375 643.933594 C 594.84375 664.628906 586.785156 684.082031 572.152344 698.714844 C 562.300781 708.566406 556.875 721.664062 556.875 735.597656 L 556.875 746.71875 C 556.875 753.707031 551.207031 759.375 544.21875 759.375 Z M 544.21875 759.375 " fill-opacity="1" fill-rule="nonzero"/><path fill="#d74b25" d="M 569.53125 810 L 341.71875 810 C 334.730469 810 329.0625 804.332031 329.0625 797.34375 L 329.0625 746.71875 C 329.0625 739.730469 334.730469 734.0625 341.71875 734.0625 L 569.53125 734.0625 C 576.519531 734.0625 582.1875 739.730469 582.1875 746.71875 L 582.1875 797.34375 C 582.1875 804.332031 576.519531 810 569.53125 810 Z M 354.375 784.6875 L 556.875 784.6875 L 556.875 759.375 L 354.375 759.375 Z M 354.375 784.6875 " fill-opacity="1" fill-rule="nonzero"/></svg>