<svg xmlns="http://www.w3.org/2000/svg" xmlns:xlink="http://www.w3.org/1999/xlink" width="1080" zoomAndPan="magnify" viewBox="0 0 810 809.999993" height="1080" preserveAspectRatio="xMidYMid meet" version="1.0"><defs><filter x="0%" y="0%" width="100%" height="100%" id="e6a5ba2694"><feColorMatrix values="0 0 0 0 1 0 0 0 0 1 0 0 0 0 1 0 0 0 1 0" color-interpolation-filters="sRGB"/></filter><mask id="401a4dd478"><g filter="url(#e6a5ba2694)"><rect x="-81" width="972" fill="#000000" y="-80.999999" height="971.999992" fill-opacity="0.44"/></g></mask><clipPath id="31e6dd604e"><path d="M 629 2 L 810 2 L 810 288.445312 L 629 288.445312 Z M 629 2 " clip-rule="nonzero"/></clipPath><clipPath id="afab763db5"><path d="M 419 2 L 601 2 L 601 288.445312 L 419 288.445312 Z M 419 2 " clip-rule="nonzero"/></clipPath><clipPath id="9152dc2aa0"><path d="M 209 2 L 391 2 L 391 288.445312 L 209 288.445312 Z M 209 2 " clip-rule="nonzero"/></clipPath><clipPath id="1b5d86467b"><path d="M 0 2 L 181 2 L 181 288.445312 L 0 288.445312 Z M 0 2 " clip-rule="nonzero"/></clipPath><clipPath id="ad4f00ec9e"><rect x="0" width="810" y="0" height="289"/></clipPath></defs><g mask="url(#401a4dd478)"><g transform="matrix(1, 0, 0, 1, 0, 173)"><g clip-path="url(#ad4f00ec9e)"><g clip-path="url(#31e6dd604e)"><path fill="#ff914d" d="M 630.257812 37.707031 C 629.996094 37.964844 629.796875 38.261719 629.652344 38.601562 C 629.511719 38.9375 629.441406 39.289062 629.441406 39.65625 C 629.441406 40.019531 629.511719 40.371094 629.652344 40.710938 C 629.796875 41.046875 629.996094 41.34375 630.257812 41.601562 L 733.828125 145.175781 L 630.257812 248.75 C 629.707031 249.28125 629.4375 249.929688 629.449219 250.695312 C 629.445312 251.457031 629.714844 252.105469 630.257812 252.644531 L 665.007812 287.394531 C 665.265625 287.652344 665.5625 287.855469 665.898438 287.996094 C 666.238281 288.136719 666.589844 288.207031 666.953125 288.207031 C 667.320312 288.207031 667.671875 288.136719 668.007812 287.996094 C 668.347656 287.855469 668.644531 287.652344 668.902344 287.394531 L 809.191406 147.121094 C 809.449219 146.867188 809.652344 146.566406 809.792969 146.230469 C 809.933594 145.894531 810.003906 145.542969 810.003906 145.175781 C 810.003906 144.808594 809.933594 144.457031 809.792969 144.121094 C 809.652344 143.78125 809.449219 143.484375 809.191406 143.230469 L 668.902344 2.9375 C 668.644531 2.679688 668.347656 2.476562 668.007812 2.335938 C 667.671875 2.195312 667.320312 2.125 666.953125 2.125 C 666.589844 2.125 666.238281 2.195312 665.898438 2.335938 C 665.5625 2.476562 665.265625 2.679688 665.007812 2.9375 Z M 803.351562 145.175781 L 666.953125 281.554688 L 636.097656 250.695312 L 739.671875 147.121094 C 740.203125 146.582031 740.472656 145.933594 740.476562 145.175781 C 740.480469 144.414062 740.210938 143.765625 739.671875 143.230469 L 636.097656 39.65625 L 666.953125 8.78125 Z M 803.351562 145.175781 " fill-opacity="1" fill-rule="nonzero"/></g><g clip-path="url(#afab763db5)"><path fill="#ff914d" d="M 599.472656 147.121094 C 599.726562 146.863281 599.925781 146.566406 600.0625 146.226562 C 600.203125 145.890625 600.269531 145.539062 600.269531 145.175781 C 600.269531 144.8125 600.203125 144.460938 600.0625 144.125 C 599.925781 143.785156 599.726562 143.488281 599.472656 143.230469 L 459.183594 2.9375 C 458.925781 2.679688 458.628906 2.476562 458.289062 2.335938 C 457.953125 2.195312 457.601562 2.125 457.234375 2.125 C 456.871094 2.125 456.519531 2.195312 456.179688 2.335938 C 455.84375 2.476562 455.546875 2.679688 455.289062 2.9375 L 420.519531 37.707031 C 420.261719 37.96875 420.066406 38.265625 419.929688 38.601562 C 419.789062 38.941406 419.722656 39.289062 419.722656 39.65625 C 419.722656 40.019531 419.789062 40.371094 419.929688 40.707031 C 420.066406 41.042969 420.261719 41.34375 420.519531 41.601562 L 524.09375 145.175781 L 420.519531 248.75 C 419.980469 249.285156 419.710938 249.933594 419.710938 250.695312 C 419.71875 251.453125 419.988281 252.101562 420.519531 252.644531 L 455.289062 287.394531 C 455.546875 287.65625 455.84375 287.855469 456.179688 287.996094 C 456.519531 288.136719 456.871094 288.207031 457.234375 288.207031 C 457.601562 288.207031 457.953125 288.136719 458.289062 287.996094 C 458.628906 287.855469 458.925781 287.65625 459.183594 287.394531 Z M 426.359375 250.695312 L 529.933594 147.121094 C 530.476562 146.585938 530.746094 145.9375 530.742188 145.175781 C 530.75 144.410156 530.484375 143.761719 529.933594 143.230469 L 426.359375 39.65625 L 457.234375 8.78125 L 593.613281 145.175781 L 457.234375 281.554688 Z M 426.359375 250.695312 " fill-opacity="1" fill-rule="nonzero"/></g><g clip-path="url(#9152dc2aa0)"><path fill="#ff914d" d="M 389.734375 147.121094 C 389.996094 146.867188 390.195312 146.566406 390.335938 146.230469 C 390.476562 145.894531 390.550781 145.542969 390.550781 145.175781 C 390.550781 144.808594 390.476562 144.457031 390.335938 144.121094 C 390.195312 143.78125 389.996094 143.484375 389.734375 143.230469 L 249.445312 2.9375 C 248.910156 2.402344 248.257812 2.132812 247.5 2.128906 C 246.738281 2.136719 246.089844 2.40625 245.550781 2.9375 L 210.800781 37.707031 C 210.539062 37.964844 210.339844 38.261719 210.199219 38.601562 C 210.058594 38.9375 209.988281 39.289062 209.988281 39.65625 C 209.988281 40.019531 210.058594 40.371094 210.199219 40.710938 C 210.339844 41.046875 210.539062 41.34375 210.800781 41.601562 L 314.375 145.175781 L 210.800781 248.75 C 210.25 249.28125 209.980469 249.929688 209.992188 250.695312 C 209.988281 251.457031 210.257812 252.105469 210.800781 252.644531 L 245.550781 287.394531 C 246.089844 287.929688 246.738281 288.199219 247.5 288.203125 C 248.257812 288.203125 248.910156 287.933594 249.445312 287.394531 Z M 216.640625 250.695312 L 320.214844 147.121094 C 320.746094 146.582031 321.015625 145.933594 321.023438 145.175781 C 321.023438 144.414062 320.753906 143.765625 320.214844 143.230469 L 216.640625 39.65625 L 247.5 8.78125 L 383.875 145.175781 L 247.480469 281.554688 Z M 216.640625 250.695312 " fill-opacity="1" fill-rule="nonzero"/></g><g clip-path="url(#1b5d86467b)"><path fill="#ff914d" d="M 180 147.121094 C 180.257812 146.867188 180.460938 146.566406 180.601562 146.230469 C 180.742188 145.894531 180.8125 145.542969 180.8125 145.175781 C 180.8125 144.808594 180.742188 144.457031 180.601562 144.121094 C 180.460938 143.78125 180.257812 143.484375 180 143.230469 L 39.726562 2.9375 C 39.1875 2.40625 38.539062 2.136719 37.78125 2.128906 C 37.019531 2.132812 36.371094 2.402344 35.832031 2.9375 L 1.0625 37.707031 C 0.808594 37.96875 0.613281 38.265625 0.472656 38.601562 C 0.335938 38.941406 0.265625 39.289062 0.265625 39.65625 C 0.265625 40.019531 0.335938 40.371094 0.472656 40.707031 C 0.613281 41.042969 0.808594 41.34375 1.0625 41.601562 L 104.691406 145.175781 L 1.121094 248.75 C 0.578125 249.285156 0.308594 249.933594 0.3125 250.695312 C 0.316406 251.453125 0.585938 252.101562 1.121094 252.644531 L 35.886719 287.394531 C 36.425781 287.933594 37.074219 288.203125 37.835938 288.203125 C 38.59375 288.199219 39.242188 287.929688 39.78125 287.394531 Z M 6.90625 250.695312 L 110.476562 147.121094 C 111.019531 146.585938 111.289062 145.9375 111.285156 145.175781 C 111.296875 144.410156 111.027344 143.761719 110.476562 143.230469 L 6.90625 39.65625 L 37.78125 8.78125 L 174.15625 145.175781 L 37.78125 281.554688 Z M 6.90625 250.695312 " fill-opacity="1" fill-rule="nonzero"/></g></g></g></g></svg>