<svg xmlns="http://www.w3.org/2000/svg" xmlns:xlink="http://www.w3.org/1999/xlink" width="1080" zoomAndPan="magnify" viewBox="0 0 810 809.999993" height="1080" preserveAspectRatio="xMidYMid meet" version="1.0"><path fill="#d74b25" d="M 25.636719 561.667969 L 116.734375 561.667969 C 117.582031 561.667969 118.425781 561.707031 119.269531 561.792969 C 120.113281 561.875 120.949219 562 121.78125 562.164062 C 122.609375 562.328125 123.429688 562.535156 124.242188 562.78125 C 125.050781 563.027344 125.847656 563.3125 126.628906 563.636719 C 127.414062 563.960938 128.175781 564.320312 128.925781 564.71875 C 129.671875 565.121094 130.398438 565.554688 131.101562 566.023438 C 131.804688 566.496094 132.484375 567 133.140625 567.535156 C 133.792969 568.074219 134.421875 568.640625 135.019531 569.242188 C 135.617188 569.839844 136.1875 570.464844 136.722656 571.121094 C 137.261719 571.777344 137.765625 572.453125 138.234375 573.160156 C 138.707031 573.863281 139.140625 574.589844 139.539062 575.335938 C 139.9375 576.082031 140.300781 576.847656 140.625 577.628906 C 140.949219 578.410156 141.234375 579.207031 141.480469 580.019531 C 141.726562 580.828125 141.929688 581.648438 142.097656 582.480469 C 142.261719 583.3125 142.386719 584.148438 142.46875 584.992188 C 142.550781 585.832031 142.59375 586.679688 142.59375 587.523438 L 142.59375 781.925781 C 142.59375 782.773438 142.550781 783.617188 142.46875 784.460938 C 142.386719 785.300781 142.261719 786.140625 142.097656 786.96875 C 141.929688 787.800781 141.726562 788.621094 141.480469 789.429688 C 141.234375 790.242188 140.949219 791.039062 140.625 791.820312 C 140.300781 792.601562 139.9375 793.367188 139.539062 794.113281 C 139.140625 794.859375 138.707031 795.585938 138.234375 796.289062 C 137.765625 796.996094 137.261719 797.675781 136.722656 798.328125 C 136.1875 798.984375 135.617188 799.609375 135.019531 800.210938 C 134.421875 800.808594 133.792969 801.375 133.140625 801.914062 C 132.484375 802.449219 131.804688 802.953125 131.101562 803.425781 C 130.398438 803.894531 129.671875 804.328125 128.925781 804.730469 C 128.175781 805.128906 127.414062 805.488281 126.628906 805.8125 C 125.847656 806.136719 125.050781 806.421875 124.242188 806.667969 C 123.429688 806.914062 122.609375 807.121094 121.78125 807.285156 C 120.949219 807.449219 120.113281 807.574219 119.269531 807.65625 C 118.425781 807.742188 117.582031 807.78125 116.734375 807.78125 L 25.636719 807.78125 C 24.789062 807.78125 23.945312 807.742188 23.101562 807.65625 C 22.261719 807.574219 21.421875 807.449219 20.59375 807.285156 C 19.761719 807.121094 18.941406 806.914062 18.132812 806.667969 C 17.320312 806.421875 16.523438 806.136719 15.742188 805.8125 C 14.960938 805.488281 14.195312 805.128906 13.449219 804.730469 C 12.703125 804.332031 11.976562 803.894531 11.273438 803.425781 C 10.566406 802.953125 9.886719 802.449219 9.234375 801.914062 C 8.578125 801.375 7.953125 800.808594 7.355469 800.210938 C 6.753906 799.609375 6.1875 798.984375 5.648438 798.328125 C 5.113281 797.675781 4.609375 796.996094 4.136719 796.289062 C 3.667969 795.585938 3.234375 794.859375 2.832031 794.113281 C 2.433594 793.367188 2.074219 792.601562 1.75 791.820312 C 1.425781 791.039062 1.140625 790.242188 0.894531 789.429688 C 0.648438 788.621094 0.441406 787.800781 0.277344 786.96875 C 0.113281 786.140625 -0.0117188 785.300781 -0.09375 784.460938 C -0.179688 783.617188 -0.21875 782.773438 -0.21875 781.925781 L -0.21875 587.523438 C -0.21875 586.679688 -0.179688 585.832031 -0.09375 584.992188 C -0.0117188 584.148438 0.113281 583.3125 0.277344 582.480469 C 0.441406 581.648438 0.648438 580.828125 0.894531 580.019531 C 1.140625 579.207031 1.425781 578.410156 1.75 577.628906 C 2.074219 576.847656 2.433594 576.082031 2.832031 575.335938 C 3.234375 574.589844 3.667969 573.863281 4.136719 573.160156 C 4.609375 572.453125 5.113281 571.777344 5.648438 571.121094 C 6.1875 570.464844 6.753906 569.839844 7.355469 569.242188 C 7.953125 568.640625 8.578125 568.074219 9.234375 567.535156 C 9.886719 567 10.566406 566.496094 11.273438 566.023438 C 11.976562 565.554688 12.703125 565.121094 13.449219 564.71875 C 14.195312 564.320312 14.960938 563.960938 15.742188 563.636719 C 16.523438 563.3125 17.320312 563.027344 18.132812 562.78125 C 18.941406 562.535156 19.761719 562.328125 20.59375 562.164062 C 21.421875 562 22.261719 561.875 23.101562 561.792969 C 23.945312 561.707031 24.789062 561.667969 25.636719 561.667969 Z M 25.636719 561.667969 " fill-opacity="1" fill-rule="nonzero"/><path fill="#d74b25" d="M 248.132812 402.746094 L 339.230469 402.746094 C 340.074219 402.746094 340.921875 402.789062 341.761719 402.871094 C 342.605469 402.953125 343.441406 403.078125 344.273438 403.242188 C 345.105469 403.40625 345.925781 403.613281 346.734375 403.859375 C 347.546875 404.105469 348.339844 404.390625 349.125 404.714844 C 349.90625 405.039062 350.671875 405.398438 351.417969 405.800781 C 352.164062 406.199219 352.890625 406.632812 353.59375 407.105469 C 354.296875 407.574219 354.976562 408.078125 355.632812 408.617188 C 356.289062 409.152344 356.914062 409.71875 357.511719 410.320312 C 358.113281 410.917969 358.679688 411.546875 359.21875 412.199219 C 359.753906 412.855469 360.257812 413.535156 360.730469 414.238281 C 361.199219 414.941406 361.632812 415.667969 362.03125 416.414062 C 362.433594 417.160156 362.792969 417.925781 363.117188 418.707031 C 363.441406 419.492188 363.726562 420.289062 363.972656 421.097656 C 364.21875 421.90625 364.425781 422.726562 364.589844 423.558594 C 364.753906 424.390625 364.878906 425.226562 364.960938 426.070312 C 365.046875 426.910156 365.085938 427.757812 365.085938 428.605469 L 365.085938 781.925781 C 365.085938 782.773438 365.046875 783.617188 364.960938 784.460938 C 364.878906 785.300781 364.753906 786.140625 364.589844 786.96875 C 364.425781 787.800781 364.21875 788.621094 363.972656 789.429688 C 363.726562 790.242188 363.441406 791.039062 363.117188 791.820312 C 362.792969 792.601562 362.433594 793.367188 362.03125 794.113281 C 361.632812 794.859375 361.199219 795.585938 360.730469 796.289062 C 360.257812 796.996094 359.753906 797.675781 359.21875 798.328125 C 358.679688 798.984375 358.113281 799.609375 357.511719 800.210938 C 356.914062 800.808594 356.289062 801.375 355.632812 801.914062 C 354.976562 802.449219 354.296875 802.953125 353.59375 803.425781 C 352.890625 803.894531 352.164062 804.328125 351.417969 804.730469 C 350.671875 805.128906 349.90625 805.488281 349.125 805.8125 C 348.339844 806.136719 347.546875 806.421875 346.734375 806.667969 C 345.925781 806.914062 345.105469 807.121094 344.273438 807.285156 C 343.441406 807.449219 342.605469 807.574219 341.761719 807.65625 C 340.921875 807.742188 340.074219 807.78125 339.230469 807.78125 L 248.132812 807.78125 C 247.285156 807.78125 246.441406 807.742188 245.597656 807.65625 C 244.753906 807.574219 243.917969 807.449219 243.085938 807.285156 C 242.257812 807.121094 241.433594 806.914062 240.625 806.667969 C 239.816406 806.421875 239.019531 806.136719 238.234375 805.8125 C 237.453125 805.488281 236.6875 805.128906 235.941406 804.730469 C 235.195312 804.332031 234.46875 803.894531 233.765625 803.425781 C 233.0625 802.953125 232.382812 802.449219 231.726562 801.914062 C 231.074219 801.375 230.445312 800.808594 229.847656 800.210938 C 229.25 799.609375 228.679688 798.984375 228.144531 798.328125 C 227.605469 797.675781 227.101562 796.996094 226.632812 796.289062 C 226.160156 795.585938 225.726562 794.859375 225.328125 794.113281 C 224.925781 793.367188 224.566406 792.601562 224.242188 791.820312 C 223.917969 791.039062 223.632812 790.242188 223.386719 789.429688 C 223.140625 788.621094 222.933594 787.800781 222.769531 786.96875 C 222.605469 786.140625 222.480469 785.300781 222.398438 784.460938 C 222.316406 783.617188 222.273438 782.773438 222.273438 781.925781 L 222.273438 428.605469 C 222.273438 427.757812 222.316406 426.910156 222.398438 426.070312 C 222.480469 425.226562 222.605469 424.390625 222.769531 423.558594 C 222.933594 422.726562 223.140625 421.90625 223.386719 421.097656 C 223.632812 420.289062 223.917969 419.492188 224.242188 418.707031 C 224.566406 417.925781 224.925781 417.160156 225.328125 416.414062 C 225.726562 415.667969 226.160156 414.941406 226.632812 414.238281 C 227.101562 413.535156 227.605469 412.855469 228.144531 412.199219 C 228.679688 411.546875 229.25 410.917969 229.847656 410.320312 C 230.445312 409.71875 231.074219 409.152344 231.726562 408.617188 C 232.382812 408.078125 233.0625 407.574219 233.765625 407.105469 C 234.46875 406.632812 235.195312 406.199219 235.941406 405.800781 C 236.6875 405.398438 237.453125 405.039062 238.234375 404.714844 C 239.019531 404.390625 239.816406 404.105469 240.625 403.859375 C 241.433594 403.613281 242.257812 403.40625 243.085938 403.242188 C 243.917969 403.078125 244.753906 402.953125 245.597656 402.871094 C 246.441406 402.789062 247.285156 402.746094 248.132812 402.746094 Z M 248.132812 402.746094 " fill-opacity="1" fill-rule="nonzero"/><path fill="#d74b25" d="M 470.625 182.890625 L 561.722656 182.890625 C 562.570312 182.890625 563.414062 182.933594 564.257812 183.015625 C 565.097656 183.097656 565.9375 183.222656 566.765625 183.386719 C 567.597656 183.554688 568.417969 183.757812 569.226562 184.003906 C 570.039062 184.25 570.835938 184.535156 571.617188 184.859375 C 572.398438 185.183594 573.164062 185.546875 573.910156 185.945312 C 574.660156 186.34375 575.382812 186.777344 576.085938 187.25 C 576.792969 187.71875 577.472656 188.222656 578.125 188.761719 C 578.78125 189.296875 579.40625 189.867188 580.007812 190.464844 C 580.605469 191.0625 581.171875 191.691406 581.710938 192.34375 C 582.246094 193 582.75 193.679688 583.222656 194.382812 C 583.691406 195.085938 584.128906 195.8125 584.527344 196.558594 C 584.925781 197.308594 585.289062 198.070312 585.613281 198.855469 C 585.9375 199.636719 586.21875 200.433594 586.464844 201.242188 C 586.710938 202.054688 586.917969 202.875 587.082031 203.703125 C 587.25 204.535156 587.371094 205.371094 587.457031 206.214844 C 587.539062 207.058594 587.578125 207.902344 587.578125 208.75 L 587.578125 781.925781 C 587.578125 782.773438 587.539062 783.617188 587.457031 784.460938 C 587.371094 785.300781 587.25 786.140625 587.082031 786.96875 C 586.917969 787.800781 586.710938 788.621094 586.464844 789.429688 C 586.21875 790.242188 585.9375 791.039062 585.613281 791.820312 C 585.289062 792.601562 584.925781 793.367188 584.527344 794.113281 C 584.128906 794.859375 583.691406 795.585938 583.222656 796.289062 C 582.75 796.996094 582.246094 797.675781 581.710938 798.328125 C 581.171875 798.984375 580.605469 799.609375 580.007812 800.210938 C 579.40625 800.808594 578.78125 801.375 578.125 801.914062 C 577.472656 802.449219 576.792969 802.953125 576.085938 803.425781 C 575.382812 803.894531 574.660156 804.328125 573.910156 804.730469 C 573.164062 805.128906 572.398438 805.488281 571.617188 805.8125 C 570.835938 806.136719 570.039062 806.421875 569.226562 806.667969 C 568.417969 806.914062 567.597656 807.121094 566.765625 807.285156 C 565.9375 807.449219 565.097656 807.574219 564.257812 807.65625 C 563.414062 807.742188 562.570312 807.78125 561.722656 807.78125 L 470.625 807.78125 C 469.777344 807.78125 468.933594 807.742188 468.089844 807.65625 C 467.246094 807.574219 466.410156 807.449219 465.578125 807.285156 C 464.75 807.121094 463.929688 806.914062 463.117188 806.667969 C 462.308594 806.421875 461.511719 806.136719 460.730469 805.8125 C 459.945312 805.488281 459.183594 805.128906 458.433594 804.730469 C 457.6875 804.332031 456.964844 803.894531 456.257812 803.425781 C 455.554688 802.953125 454.875 802.449219 454.21875 801.914062 C 453.566406 801.375 452.9375 800.808594 452.339844 800.210938 C 451.742188 799.609375 451.171875 798.984375 450.636719 798.328125 C 450.097656 797.675781 449.59375 796.996094 449.125 796.289062 C 448.652344 795.585938 448.21875 794.859375 447.820312 794.113281 C 447.421875 793.367188 447.058594 792.601562 446.734375 791.820312 C 446.410156 791.039062 446.125 790.242188 445.878906 789.429688 C 445.632812 788.621094 445.429688 787.800781 445.265625 786.96875 C 445.097656 786.140625 444.972656 785.300781 444.890625 784.460938 C 444.808594 783.617188 444.765625 782.773438 444.765625 781.925781 L 444.765625 208.75 C 444.765625 207.902344 444.808594 207.058594 444.890625 206.214844 C 444.972656 205.371094 445.097656 204.535156 445.265625 203.703125 C 445.429688 202.875 445.632812 202.054688 445.878906 201.242188 C 446.125 200.433594 446.410156 199.636719 446.734375 198.855469 C 447.058594 198.070312 447.421875 197.308594 447.820312 196.558594 C 448.21875 195.8125 448.652344 195.085938 449.125 194.382812 C 449.59375 193.679688 450.097656 193 450.636719 192.34375 C 451.171875 191.691406 451.742188 191.0625 452.339844 190.464844 C 452.9375 189.867188 453.566406 189.296875 454.21875 188.761719 C 454.875 188.222656 455.554688 187.71875 456.257812 187.25 C 456.964844 186.777344 457.6875 186.34375 458.433594 185.945312 C 459.183594 185.546875 459.945312 185.183594 460.730469 184.859375 C 461.511719 184.535156 462.308594 184.25 463.117188 184.003906 C 463.929688 183.757812 464.75 183.554688 465.578125 183.386719 C 466.410156 183.222656 467.246094 183.097656 468.089844 183.015625 C 468.933594 182.933594 469.777344 182.890625 470.625 182.890625 Z M 470.625 182.890625 " fill-opacity="1" fill-rule="nonzero"/><path fill="#d74b25" d="M 693.117188 0.128906 L 784.214844 0.128906 C 785.0625 0.128906 785.90625 0.167969 786.75 0.253906 C 787.59375 0.335938 788.429688 0.460938 789.261719 0.625 C 790.089844 0.789062 790.910156 0.996094 791.722656 1.242188 C 792.53125 1.488281 793.328125 1.773438 794.109375 2.097656 C 794.894531 2.421875 795.65625 2.78125 796.40625 3.179688 C 797.152344 3.582031 797.878906 4.015625 798.582031 4.484375 C 799.285156 4.957031 799.964844 5.460938 800.621094 5.996094 C 801.273438 6.535156 801.902344 7.101562 802.5 7.703125 C 803.097656 8.300781 803.667969 8.925781 804.203125 9.582031 C 804.742188 10.238281 805.246094 10.917969 805.714844 11.621094 C 806.1875 12.324219 806.621094 13.050781 807.019531 13.796875 C 807.417969 14.542969 807.78125 15.308594 808.105469 16.089844 C 808.429688 16.875 808.714844 17.667969 808.960938 18.480469 C 809.207031 19.289062 809.410156 20.109375 809.578125 20.941406 C 809.742188 21.773438 809.867188 22.609375 809.949219 23.453125 C 810.03125 24.292969 810.074219 25.140625 810.074219 25.984375 L 810.074219 781.925781 C 810.074219 782.773438 810.03125 783.617188 809.949219 784.460938 C 809.867188 785.300781 809.742188 786.140625 809.578125 786.96875 C 809.410156 787.800781 809.207031 788.621094 808.960938 789.429688 C 808.714844 790.242188 808.429688 791.039062 808.105469 791.820312 C 807.78125 792.601562 807.417969 793.367188 807.019531 794.113281 C 806.621094 794.859375 806.1875 795.585938 805.714844 796.289062 C 805.246094 796.996094 804.742188 797.675781 804.203125 798.328125 C 803.667969 798.984375 803.097656 799.609375 802.5 800.210938 C 801.902344 800.808594 801.273438 801.375 800.621094 801.914062 C 799.964844 802.449219 799.285156 802.953125 798.582031 803.425781 C 797.878906 803.894531 797.152344 804.328125 796.40625 804.730469 C 795.65625 805.128906 794.894531 805.488281 794.109375 805.8125 C 793.328125 806.136719 792.53125 806.421875 791.722656 806.667969 C 790.910156 806.914062 790.089844 807.121094 789.261719 807.285156 C 788.429688 807.449219 787.59375 807.574219 786.75 807.65625 C 785.90625 807.742188 785.0625 807.78125 784.214844 807.78125 L 693.117188 807.78125 C 692.269531 807.78125 691.425781 807.742188 690.582031 807.65625 C 689.742188 807.574219 688.902344 807.449219 688.074219 807.285156 C 687.242188 807.121094 686.421875 806.914062 685.613281 806.667969 C 684.800781 806.421875 684.003906 806.136719 683.222656 805.8125 C 682.441406 805.488281 681.675781 805.128906 680.929688 804.730469 C 680.183594 804.332031 679.457031 803.894531 678.753906 803.425781 C 678.046875 802.953125 677.367188 802.449219 676.714844 801.914062 C 676.058594 801.375 675.433594 800.808594 674.832031 800.210938 C 674.234375 799.609375 673.667969 798.984375 673.128906 798.328125 C 672.59375 797.675781 672.089844 796.996094 671.617188 796.289062 C 671.148438 795.585938 670.710938 794.859375 670.3125 794.113281 C 669.914062 793.367188 669.554688 792.601562 669.230469 791.820312 C 668.90625 791.039062 668.621094 790.242188 668.375 789.429688 C 668.128906 788.621094 667.921875 787.800781 667.757812 786.96875 C 667.59375 786.140625 667.46875 785.300781 667.386719 784.460938 C 667.300781 783.617188 667.261719 782.773438 667.261719 781.925781 L 667.261719 25.984375 C 667.261719 25.140625 667.300781 24.292969 667.386719 23.453125 C 667.46875 22.609375 667.59375 21.773438 667.757812 20.941406 C 667.921875 20.109375 668.128906 19.289062 668.375 18.480469 C 668.621094 17.667969 668.90625 16.875 669.230469 16.089844 C 669.554688 15.308594 669.914062 14.542969 670.3125 13.796875 C 670.710938 13.050781 671.148438 12.324219 671.617188 11.621094 C 672.089844 10.917969 672.59375 10.238281 673.128906 9.582031 C 673.667969 8.925781 674.234375 8.300781 674.832031 7.703125 C 675.433594 7.101562 676.058594 6.535156 676.714844 5.996094 C 677.367188 5.460938 678.046875 4.957031 678.753906 4.484375 C 679.457031 4.015625 680.183594 3.582031 680.929688 3.179688 C 681.675781 2.78125 682.441406 2.421875 683.222656 2.097656 C 684.003906 1.773438 684.800781 1.488281 685.613281 1.242188 C 686.421875 0.996094 687.242188 0.789062 688.074219 0.625 C 688.902344 0.460938 689.742188 0.335938 690.582031 0.253906 C 691.425781 0.167969 692.269531 0.128906 693.117188 0.128906 Z M 693.117188 0.128906 " fill-opacity="1" fill-rule="nonzero"/></svg>