<svg width="512" height="512" viewBox="0 0 512 512" fill="none" xmlns="http://www.w3.org/2000/svg">
<g clip-path="url(#clip0_474_2)">
<path d="M1 134C1 89.3333 1 45.1667 1 1C171.667 1 342.333 1 513 1C513 171.667 513 342.333 513 513C342.333 513 171.667 513 1 513C1 386.833 1 260.667 1 134ZM77.3243 495.657C86.8331 500.509 94.5745 497.313 97.946 486.95C111.612 444.942 125.22 402.915 138.83 360.889C139.26 359.56 139.483 358.165 139.857 356.571C134.83 356.571 130.367 356.571 125.007 356.391C122.514 356.367 119.988 356.595 117.537 356.262C113.489 355.71 111.809 357.35 110.605 361.231C105.1 378.98 99.2177 396.611 93.4871 414.289C86.5286 435.755 79.5611 457.218 72.6502 478.7C70.2159 486.266 71.3638 490.464 77.3243 495.657ZM387.012 356.409C383.037 356.453 379.063 356.497 374.509 356.524C374.558 357.208 374.607 357.892 374.775 359.302C374.994 360.102 375.182 360.912 375.438 361.7C385.041 391.369 394.739 421.007 404.114 450.748C404.998 453.552 405.067 458.575 403.424 459.831C399.151 463.096 400.696 466.021 401.971 469.538C403.078 472.591 403.792 475.793 405.006 478.797C405.431 479.85 406.807 481.21 407.779 481.234C412.49 481.351 415.004 483.72 416.422 488.032C417.813 492.263 420.193 495.801 425.657 497.291C429.991 498.831 433.889 497.738 437.396 495.108C442.408 491.349 443.673 485.909 441.264 478.45C429.349 441.573 417.402 404.706 405.45 367.84C401.358 355.215 401.337 355.222 387.012 356.409ZM481.079 16.0239C331.45 16.0141 181.822 16.004 32.1939 15.9948C19.6573 15.9941 16.0632 19.5448 16.063 31.9457C16.0612 129.921 16.0617 227.895 16.0643 325.87C16.0644 327.37 15.9974 328.878 16.1374 330.366C16.7241 336.602 20.9055 340.728 27.1387 341.23C28.7958 341.364 30.4681 341.335 32.1335 341.335C180.262 341.339 328.391 341.34 476.52 341.327C478.344 341.327 480.169 341.148 482.863 341.258C493.936 341.364 497.93 337.439 497.931 326.369C497.936 227.958 497.936 129.546 497.931 31.135C497.93 19.646 493.585 15.5779 481.079 16.0239ZM326.5 413.769C265.716 413.77 204.932 413.769 144.147 413.771C142.649 413.771 141.079 413.524 139.675 413.894C138.602 414.176 137.207 415.062 136.869 416.007C134.815 421.747 133.022 427.581 131.063 433.628C215.227 433.628 298.751 433.628 382.856 433.628C381.11 428.153 379.296 423.17 377.97 418.06C377.09 414.67 375.356 413.727 371.963 413.763C357.144 413.919 342.321 413.793 326.5 413.769Z" fill="white"/>
<path d="M481.992 341.052C480.167 341.148 478.343 341.326 476.518 341.326C328.389 341.339 180.261 341.339 32.132 341.334C30.4666 341.334 28.7943 341.363 27.1372 341.23C20.904 340.728 16.7227 336.601 16.1359 330.366C15.9959 328.878 16.0629 327.369 16.0628 325.87C16.0602 227.895 16.0598 129.92 16.0615 31.9455C16.0617 19.5446 19.6559 15.9939 32.1924 15.9946C181.821 16.0038 331.449 16.0138 481.709 16.4083C483.234 20.9608 484.899 25.1277 484.906 29.2969C485.051 128.925 485.057 228.553 484.891 328.181C484.884 332.473 483.001 336.762 481.992 341.052ZM153.991 39.4374C152.895 34.2041 149.356 32.7641 144.421 32.7766C112.266 32.8584 80.1101 32.785 47.9545 32.8359C37.3231 32.8527 31.822 38.2462 31.8176 48.7495C31.7816 135.387 31.7833 222.024 31.8192 308.661C31.8235 319.031 37.5031 324.615 47.9629 324.736C55.7925 324.826 63.6239 324.755 71.4546 324.755C202.41 324.755 333.365 324.758 464.32 324.751C476.478 324.751 482.183 319.574 482.186 308.381C482.21 221.91 482.21 135.44 482.188 48.9696C482.185 38.405 476.746 32.8424 466.258 32.8385C371.957 32.8035 277.656 32.8366 183.355 32.7736C178.006 32.77 174.798 34.8596 172.938 40.1664C166.68 40.172 160.422 40.1776 153.991 39.4374Z" fill="#D47D49"/>
<path d="M327 413.769C342.321 413.793 357.143 413.919 371.963 413.763C375.356 413.727 377.09 414.67 377.97 418.06C379.296 423.17 381.11 428.153 382.856 433.628C298.75 433.628 215.227 433.628 131.062 433.628C133.022 427.581 134.814 421.747 136.869 416.007C137.207 415.062 138.602 414.176 139.674 413.894C141.079 413.524 142.649 413.771 144.147 413.771C204.931 413.769 265.716 413.769 327 413.769Z" fill="#9C5427"/>
<path d="M482.429 341.155C483.003 336.762 484.886 332.473 484.893 328.181C485.059 228.553 485.053 128.925 484.908 29.2973C484.902 25.128 483.236 20.9611 482.176 16.4779C493.585 15.578 497.931 19.6461 497.931 31.1351C497.936 129.546 497.937 227.958 497.931 326.369C497.931 337.439 493.937 341.364 482.429 341.155Z" fill="#C66C36"/>
<path d="M424.981 496.869C420.193 495.801 417.814 492.263 416.423 488.032C415.005 483.72 412.491 481.351 407.78 481.234C406.808 481.211 405.432 479.85 405.006 478.797C403.793 475.793 403.078 472.591 401.971 469.538C400.696 466.021 399.152 463.096 403.424 459.831C405.068 458.575 404.999 453.552 404.115 450.748C394.739 421.007 385.041 391.369 375.438 361.7C375.183 360.912 374.995 360.102 374.812 358.604C374.93 357.451 375.009 356.996 375.089 356.542C379.064 356.498 383.038 356.453 387.51 356.864C400.135 394.698 412.093 432.133 424.507 469.417C427.611 478.738 429.794 487.623 424.981 496.869Z" fill="#C66C36"/>
<path d="M425.32 497.079C429.795 487.623 427.611 478.738 424.507 469.417C412.094 432.133 400.135 394.698 387.953 356.976C401.338 355.222 401.359 355.215 405.451 367.84C417.403 404.705 429.35 441.572 441.265 478.45C443.674 485.908 442.409 491.349 437.397 495.108C433.89 497.738 429.992 498.83 425.32 497.079Z" fill="#AA5D2D"/>
<path d="M76.8642 495.088C71.3631 490.464 70.2152 486.266 72.6495 478.7C79.5604 457.218 86.5279 435.755 93.4864 414.289C99.217 396.611 105.099 378.98 110.604 361.231C111.808 357.35 113.488 355.71 117.537 356.262C119.987 356.595 122.514 356.367 125.462 356.842C125.75 358.272 125.7 359.288 125.397 360.221C111.984 401.544 98.6672 442.899 84.9295 484.113C83.5632 488.212 79.6144 491.45 76.8642 495.088Z" fill="#C66C35"/>
<path d="M77.0938 495.372C79.6142 491.45 83.563 488.212 84.9293 484.113C98.667 442.898 111.984 401.543 125.397 360.221C125.7 359.287 125.75 358.271 125.911 356.932C130.367 356.57 134.829 356.57 139.856 356.57C139.482 358.164 139.259 359.56 138.829 360.889C125.219 402.915 111.611 444.942 97.9451 486.949C94.5736 497.313 86.8323 500.508 77.0938 495.372Z" fill="#AA5D2D"/>
<path d="M374.8 356.533C375.01 356.996 374.931 357.451 374.755 358.24C374.609 357.891 374.56 357.208 374.8 356.533Z" fill="#AA5D2D"/>
<path d="M154.168 40.1835C160.425 40.1779 166.683 40.1723 173.476 40.5256C176.072 46.8212 177.619 47.8247 184.887 47.825C272.76 47.8286 360.634 47.8258 448.507 47.8364C450.665 47.8366 452.822 47.9713 454.987 48.5092C454.971 135.82 454.948 222.666 454.47 309.604C318.447 309.698 182.879 309.698 47.1445 309.698C47.1445 222.176 47.1445 135.158 47.1445 47.8273C49.2792 47.8273 51.0866 47.8273 52.894 47.8273C83.216 47.8273 113.538 47.8364 143.86 47.8202C150.614 47.8166 152.506 46.3723 154.168 40.1835ZM217.165 159.585C215.961 161.826 213.743 164.054 213.713 166.312C213.441 186.471 213.384 206.638 213.776 226.794C213.824 229.266 216.346 232.687 218.654 233.91C223.429 236.439 228.349 232.527 228.485 226.385C228.696 216.891 228.334 207.382 228.656 197.894C228.818 193.132 229.328 188.199 230.795 183.707C233.043 176.822 238.644 173.689 245.054 174.599C250.001 175.301 252.711 178.277 253.131 186.119C253.826 199.079 253.721 212.082 253.923 225.068C254.02 231.242 256.824 234.786 261.587 234.641C266.149 234.501 268.913 231.014 268.937 225.168C268.981 214.003 268.886 202.838 269.014 191.674C269.046 188.878 269.359 185.985 270.151 183.318C272.025 177.011 276.697 174.369 284.18 174.926C289.81 175.345 292.16 177.849 293.133 184.915C293.564 188.036 293.728 191.213 293.748 194.367C293.817 205.198 293.677 216.03 293.809 226.86C293.866 231.551 297.03 234.639 301.184 234.629C305.089 234.618 308.617 231.682 308.61 227.341C308.583 212.028 308.987 196.646 307.685 181.423C306.5 167.569 296.714 160.12 282.816 159.807C274.799 159.626 267.935 162.328 262.123 167.446C251.676 157.438 240.418 157.758 228.367 163.233C225.859 159.346 222.503 157.418 217.165 159.585ZM81.192 122.236C76.6519 122.986 73.9546 125.442 73.9525 130.25C73.9386 162.223 73.912 194.196 73.9785 226.169C73.9889 231.17 76.748 234.021 81.6688 234.066C95.1561 234.189 108.645 234.133 122.134 234.081C126.183 234.065 128.681 231.844 129.539 227.967C130.587 223.231 126.908 219.217 121.278 219.155C110.664 219.039 100.049 219.122 89.2767 219.122C89.2767 207.815 89.2767 196.945 89.2767 185.824C98.4103 185.824 107.219 185.843 116.027 185.807C117.679 185.801 119.394 185.817 120.968 185.402C124.86 184.375 126.984 181.56 126.604 177.66C126.18 173.297 123.41 170.84 118.847 170.833C109.062 170.817 99.2776 170.828 89.2253 170.828C89.2253 159.478 89.2253 148.6 89.2253 137.258C91.2879 137.258 93.0806 137.262 94.8734 137.257C104.032 137.236 113.191 137.284 122.348 137.161C126.685 137.103 129.239 134.48 129.617 130.373C129.976 126.469 127.885 123.656 123.982 122.635C122.404 122.223 120.694 122.198 119.043 122.194C106.72 122.164 94.3969 122.184 81.192 122.236ZM386.29 213.264C382.138 210.445 378.816 211.65 375.085 214.641C372.113 217.024 368.335 219.148 364.648 219.749C355.192 221.291 346.003 215.807 341.808 207.11C337.708 198.611 339.255 188.444 345.688 181.614C353.246 173.588 363.761 172.186 374.399 177.787C379.836 180.649 384.55 179.326 386.381 174.423C387.829 170.544 386.128 167.164 381.308 164.342C363.807 154.097 340.904 159.888 330.154 177.277C319.308 194.82 324.577 217.975 341.934 229.046C356.487 238.328 375.399 236.694 385.972 225.295C389.361 221.641 390.336 217.907 386.29 213.264ZM439.921 175.917C437.278 167.326 429.558 171.042 423.386 169.554C426.074 165.785 428.667 162.57 430.783 159.067C433.089 155.25 435.535 151.354 436.894 147.16C440.189 136.993 434.949 126.972 425.067 123.444C415.376 119.985 404.772 124.71 400.672 134.315C398.298 139.878 399.469 144.272 403.855 146.256C408.108 148.18 411.445 146.427 414.234 140.806C414.456 140.36 414.6 139.641 414.941 139.526C416.795 138.903 419.135 137.527 420.459 138.167C421.717 138.774 422.816 141.78 422.408 143.311C421.707 145.942 419.955 148.371 418.333 150.665C413.239 157.871 407.815 164.848 402.874 172.154C398.612 178.456 401.996 184.753 409.622 184.955C416.949 185.149 424.286 185.082 431.617 184.978C437.178 184.899 439.398 182.596 439.921 175.917ZM175.449 217.357C178.435 217.352 181.425 217.437 184.407 217.321C189.435 217.126 192.619 214.168 192.604 209.869C192.589 205.621 189.381 202.468 184.366 202.377C175.245 202.21 166.116 202.212 156.994 202.365C151.579 202.455 148.495 205.549 148.649 210.166C148.797 214.602 151.745 217.22 157.045 217.324C162.849 217.437 168.657 217.354 175.449 217.357ZM150.192 178.525C146.826 185.557 149.656 190.599 157.26 190.727C166.236 190.878 175.218 190.849 184.195 190.725C189.219 190.655 192.505 187.609 192.614 183.366C192.729 178.874 189.447 175.83 184.039 175.769C175.061 175.666 166.077 175.602 157.105 175.842C154.962 175.9 152.852 177.225 150.192 178.525Z" fill="#91DDB6"/>
<path d="M454.979 48.0433C452.821 47.9713 450.663 47.8367 448.505 47.8364C360.632 47.8258 272.759 47.8286 184.886 47.825C177.618 47.8247 176.07 46.8212 173.934 40.5345C174.799 34.8599 178.008 32.7704 183.357 32.7739C277.658 32.8369 371.959 32.8038 466.26 32.8388C476.748 32.8427 482.186 38.4053 482.189 48.9699C482.211 135.44 482.212 221.911 482.188 308.381C482.185 319.574 476.479 324.751 464.322 324.752C333.366 324.758 202.411 324.756 71.4561 324.756C63.6255 324.756 55.794 324.827 47.9644 324.736C37.5046 324.615 31.825 319.032 31.8208 308.661C31.7849 222.024 31.7831 135.387 31.8191 48.7499C31.8235 38.2465 37.3246 32.853 47.956 32.8362C80.1116 32.7853 112.267 32.8587 144.423 32.7769C149.357 32.7644 152.896 34.2044 154.08 39.8106C152.505 46.3723 150.612 47.8166 143.859 47.8202C113.537 47.8364 83.2146 47.8273 52.8926 47.8274C51.0852 47.8274 49.2778 47.8274 47.1432 47.8274C47.1432 135.158 47.1432 222.176 47.1432 309.698C182.878 309.698 318.446 309.698 454.926 309.704C459.454 309.709 463.069 309.709 466.807 309.709C466.807 222.138 466.807 135.084 466.807 48.0433C462.599 48.0433 458.789 48.0433 454.979 48.0433Z" fill="#030403"/>
<path d="M217.479 159.388C222.499 157.419 225.856 159.346 228.364 163.233C240.415 157.758 251.672 157.438 262.12 167.446C267.932 162.328 274.795 159.626 282.813 159.807C296.711 160.12 306.496 167.569 307.681 181.423C308.984 196.646 308.58 212.028 308.606 227.341C308.614 231.682 305.086 234.618 301.181 234.629C297.027 234.639 293.863 231.551 293.806 226.86C293.674 216.03 293.814 205.198 293.745 194.367C293.725 191.213 293.56 188.036 293.13 184.915C292.156 177.849 289.807 175.345 284.177 174.926C276.694 174.369 272.022 177.011 270.148 183.318C269.355 185.985 269.043 188.878 269.011 191.675C268.882 202.838 268.978 214.003 268.934 225.168C268.91 231.014 266.146 234.501 261.584 234.641C256.821 234.786 254.016 231.242 253.92 225.068C253.717 212.082 253.823 199.079 253.128 186.119C252.708 178.277 249.998 175.302 245.051 174.599C238.641 173.689 233.04 176.822 230.792 183.707C229.325 188.199 228.815 193.132 228.653 197.894C228.33 207.382 228.693 216.891 228.482 226.385C228.346 232.527 223.425 236.439 218.651 233.91C216.343 232.687 213.821 229.266 213.773 226.794C213.381 206.638 213.438 186.471 213.709 166.312C213.74 164.054 215.958 161.826 217.479 159.388Z" fill="#030403"/>
<path d="M81.6312 122.212C94.3952 122.184 106.718 122.164 119.041 122.194C120.692 122.198 122.402 122.222 123.981 122.635C127.883 123.656 129.975 126.468 129.615 130.373C129.237 134.479 126.683 137.102 122.346 137.161C113.189 137.283 104.03 137.236 94.8716 137.257C93.0788 137.261 91.2861 137.258 89.2235 137.258C89.2235 148.6 89.2235 159.478 89.2235 170.828C99.2758 170.828 109.06 170.817 118.845 170.832C123.408 170.84 126.178 173.297 126.603 177.659C126.982 181.56 124.858 184.375 120.967 185.402C119.392 185.817 117.677 185.801 116.025 185.807C107.217 185.843 98.4085 185.824 89.2749 185.824C89.2749 196.945 89.2749 207.815 89.2749 219.122C100.047 219.122 110.663 219.039 121.276 219.155C126.907 219.216 130.585 223.231 129.537 227.967C128.679 231.844 126.181 234.065 122.132 234.08C108.644 234.133 95.1543 234.189 81.667 234.066C76.7462 234.021 73.9871 231.17 73.9767 226.169C73.9103 194.196 73.9368 162.223 73.9508 130.25C73.9529 125.442 76.6501 122.986 81.6312 122.212Z" fill="#020302"/>
<path d="M454.987 48.5094C458.79 48.0435 462.6 48.0435 466.808 48.0435C466.808 135.084 466.808 222.138 466.808 309.709C463.07 309.709 459.455 309.709 455.383 309.61C454.948 222.666 454.971 135.82 454.987 48.5094Z" fill="#6CCD9C"/>
<path d="M386.563 213.524C390.336 217.907 389.361 221.641 385.972 225.295C375.4 236.694 356.487 238.327 341.935 229.046C324.577 217.975 319.309 194.82 330.154 177.276C340.904 159.887 363.808 154.096 381.309 164.342C386.128 167.163 387.829 170.544 386.381 174.422C384.55 179.326 379.837 180.649 374.399 177.787C363.762 172.186 353.246 173.588 345.688 181.613C339.255 188.444 337.708 198.61 341.808 207.11C346.004 215.807 355.193 221.29 364.648 219.749C368.335 219.148 372.113 217.024 375.086 214.641C378.817 211.649 382.139 210.444 386.563 213.524Z" fill="#020403"/>
<path d="M439.961 176.313C439.396 182.596 437.175 184.899 431.615 184.978C424.284 185.082 416.947 185.149 409.62 184.954C401.994 184.752 398.61 178.455 402.872 172.153C407.813 164.848 413.237 157.87 418.331 150.665C419.953 148.371 421.704 145.942 422.406 143.31C422.814 141.78 421.715 138.774 420.457 138.166C419.133 137.527 416.792 138.903 414.939 139.526C414.598 139.641 414.453 140.359 414.232 140.806C411.443 146.426 408.106 148.18 403.853 146.256C399.467 144.272 398.296 139.877 400.67 134.315C404.77 124.71 415.374 119.984 425.065 123.444C434.947 126.972 440.186 136.993 436.892 147.16C435.533 151.354 433.087 155.249 430.781 159.067C428.664 162.57 426.071 165.785 423.384 169.554C429.556 171.041 437.276 167.325 439.961 176.313Z" fill="#020303"/>
<path d="M174.954 217.357C168.655 217.354 162.846 217.437 157.042 217.324C151.742 217.22 148.794 214.602 148.646 210.166C148.492 205.549 151.577 202.455 156.992 202.365C166.114 202.212 175.242 202.21 184.364 202.377C189.379 202.468 192.586 205.621 192.601 209.869C192.616 214.168 189.432 217.126 184.404 217.321C181.422 217.437 178.432 217.352 174.954 217.357Z" fill="#040605"/>
<path d="M150.458 178.246C152.851 177.225 154.96 175.9 157.103 175.843C166.076 175.602 175.06 175.666 184.037 175.769C189.446 175.83 192.728 178.874 192.613 183.367C192.504 187.609 189.218 190.655 184.194 190.725C175.217 190.849 166.235 190.878 157.258 190.727C149.655 190.599 146.825 185.557 150.458 178.246Z" fill="#040504"/>
</g>
<defs>
<clipPath id="clip0_474_2">
<rect width="512" height="512" fill="white"/>
</clipPath>
</defs>
</svg>
