<svg xmlns="http://www.w3.org/2000/svg" xmlns:xlink="http://www.w3.org/1999/xlink" width="1080" zoomAndPan="magnify" viewBox="0 0 810 809.999993" height="1080" preserveAspectRatio="xMidYMid meet" version="1.0"><path fill="#d74b25" d="M 520.847656 520.703125 L 289.441406 520.703125 L 289.441406 405 L 520.847656 405 Z M 347.253906 289.296875 C 347.253906 236.515625 391.625 231.695312 405.289062 231.40625 C 415.066406 231.40625 463.03125 234.285156 463.03125 289.296875 L 463.03125 347.113281 L 347.253906 347.113281 Z M 549.753906 347.113281 L 520.917969 347.113281 L 520.917969 289.296875 C 520.917969 204.371094 451.667969 173.59375 405.214844 173.59375 L 405.214844 188.980469 L 405.144531 173.59375 C 358.617188 173.59375 289.441406 204.371094 289.441406 289.296875 L 289.441406 347.113281 L 260.53125 347.113281 C 244.496094 347.113281 231.550781 360.128906 231.550781 376.09375 L 231.550781 549.613281 C 231.550781 565.648438 244.496094 578.59375 260.53125 578.59375 L 549.753906 578.59375 C 565.792969 578.59375 578.734375 565.648438 578.734375 549.613281 L 578.734375 376.09375 C 578.734375 360.128906 565.792969 347.113281 549.753906 347.113281 Z M 405.214844 749.089844 C 101.105469 599.660156 107.867188 248.808594 114.050781 165.539062 L 405.214844 59.6875 L 696.453125 165.539062 C 702.566406 248.882812 709.179688 599.660156 405.214844 749.089844 Z M 752.253906 141.015625 L 750.097656 123.46875 L 415.210938 1.726562 L 410.175781 0 L 399.964844 0 L 60.40625 123.46875 L 58.246094 141.015625 C 57.671875 145.835938 2.230469 626.988281 392.992188 807.339844 L 398.742188 810 L 411.6875 810 L 417.441406 807.339844 C 807.988281 626.988281 752.832031 145.835938 752.253906 141.015625 " fill-opacity="1" fill-rule="nonzero"/></svg>